<svg width="243" height="189" viewBox="0 0 243 189" fill="none" xmlns="http://www.w3.org/2000/svg">
    <path fill-rule="evenodd" clip-rule="evenodd"
        d="M67.2193 43.2214C68.0229 43.1534 70.1012 41.544 69.0107 40.7299C67.9106 39.9086 67.1201 42.661 67.2193 43.2214ZM25.3519 49.3941C25.562 49.3568 25.4703 48.2044 25.1396 48.0572C24.0955 47.5925 24.0074 49.3389 23.9818 49.8062C23.9502 50.3959 23.8764 52.0572 25.1459 51.6017C25.8666 51.3432 25.4194 49.836 25.3519 49.3941ZM86.9865 54.7784C86.9583 55.8071 89.0315 57.7853 89.8044 56.5987C90.4546 55.6017 87.0397 52.7304 86.9865 54.7784ZM13.6857 31.5764C14.2864 33.1126 17.2571 31.0192 17.3676 29.8924C17.5941 27.5848 13.6546 30.0412 13.6857 31.5764ZM38.4706 38.1992C39.8541 38.0853 41.6745 36.322 43.0087 35.6633C43.9115 35.2177 46.3681 34.6864 46.6352 33.6743C46.8678 32.7949 42.6996 34.6771 42.3437 34.8444C40.7086 35.6123 39.2345 36.4877 38.4706 38.1992ZM142.33 26.0404C143.433 25.1856 144.774 24.6342 146.187 24.6704C146.893 24.6884 148.366 25.1311 148.421 23.9073C148.511 21.9175 142.277 24.3442 141.303 24.7346C141.645 25.1702 141.988 25.6053 142.33 26.0404ZM73.539 103.589C72.73 102.243 71.2751 101.464 70.1808 100.315C70.5819 102.202 69.6777 103.88 69.0565 105.602C70.551 104.931 72.0447 104.26 73.539 103.589ZM214.025 132.298C214.471 130.802 214.917 129.315 215.438 127.842C216.022 126.193 216.312 126.05 214.916 124.897C213.757 127.092 212.598 129.288 211.439 131.484C212.264 131.835 213.125 132.177 214.025 132.298ZM94.1054 24.0223C92.5713 22.2888 85.3815 22.1799 86.2711 26.0058C86.5817 27.3416 88.3494 25.9225 89.4566 25.6111C90.5556 25.3019 93.6674 25.2609 94.1054 24.0223ZM93.8417 48.5647C93.6558 48.1222 93.2846 46.5254 92.7335 46.3996C92.1966 46.2769 90.0783 47.9517 89.6802 48.2073C87.6939 49.4832 85.7578 50.8558 83.8222 52.2083C84.5633 52.2083 85.2362 51.9438 85.9729 51.9382C86.8483 51.9305 87.4761 52.2911 88.3296 52.0854C90.1635 51.644 92.2918 49.6069 93.8417 48.5647ZM95.829 9.01011C96.0012 8.21722 104.99 10.5974 106.071 11.0332C106.659 11.2703 109.696 12.8528 109.043 10.4677C108.672 9.10931 105.163 8.07379 104.038 7.70149C101.179 6.75551 98.1649 6.08262 95.1208 6.23868C94.5296 6.26876 90.0527 6.52774 91.9222 8.33164C92.5663 8.95288 94.8753 8.75707 95.829 9.01011ZM97.7968 117.949C99.4716 118.775 101.182 119.407 102.932 120.053C103.71 120.34 104.921 121.091 105.779 120.902C106.482 120.747 106.707 119.675 107.076 118.957C108.425 116.33 110.037 114.211 112.035 112.045C111.107 111.367 106.397 114.359 105.232 114.801C104.065 115.243 102.965 115.688 101.823 116.217C100.748 116.714 98.6265 117.159 97.7968 117.949ZM127.45 95.5573C129.891 94.4501 132.205 92.4867 134.206 90.7287C136.505 88.7103 138.565 86.5949 140.248 83.9829C139.235 84.0347 137 87.2996 136.975 83.745C136.962 81.9317 139.441 80.1457 140.21 78.4638C138.297 77.3806 136.542 83.8528 134.346 82.2841C132.231 80.7724 135.569 75.575 136.212 73.9352C134.971 73.1076 127.902 82.371 126.878 83.5562C126.238 84.2982 124.725 85.286 124.364 86.1514C124.148 86.6668 124.118 88.3016 124.222 88.7756C124.438 89.7665 125.535 90.9533 126.023 91.8761C126.641 93.0444 127.179 94.2584 127.45 95.5573ZM228.355 128.955C226.245 125.968 228.425 124.666 230.141 122.187C231.514 120.204 232.777 118.018 233.647 115.804C235.823 110.266 237.786 105.117 238.861 99.2578C237.382 99.9348 236.458 102.511 235.718 103.868C234.723 105.693 233.848 107.608 232.742 109.376C230.672 112.684 228.641 116.214 226.009 119.081C224.816 120.381 223.806 121.843 222.43 123.014C221.802 123.549 220.599 123.988 220.136 124.657C219.699 125.288 220.188 125.692 220.022 126.446C219.851 127.22 219.07 128.045 218.735 128.791C218.295 129.769 217.885 130.751 217.394 131.708C216.858 132.751 216.712 133.297 216.567 134.317C216.409 135.433 216.893 135.549 215.922 136.576C217.683 137.355 219.443 138.133 221.204 138.911C221.798 139.174 222.392 139.436 222.987 139.699C223.112 139.464 223.237 139.228 223.362 138.993C223.846 138.522 224.291 137.36 224.568 136.738C225.725 134.141 227.031 131.534 228.355 128.955ZM58.3306 116.417C53.3312 129.612 70.8993 140.722 81.7138 143.179C83.2118 143.519 84.6736 143.965 86.1646 144.33C87.7904 144.729 89.234 144.649 90.8569 144.816C92.1479 144.949 92.7633 145.949 93.9799 146.224C96.0128 146.685 95.8886 145.153 96.0341 143.512C96.6514 136.554 100.194 129.84 103.943 124.034C102.23 123.42 100.533 122.75 98.8428 122.077C97.396 121.501 95.1809 119.883 93.6255 119.798C92.4753 119.735 90.7225 120.719 89.6053 121.151C87.7448 121.871 85.8788 122.484 83.9398 122.975C80.5489 123.833 76.7758 125.003 73.2671 125.092C72.2554 125.117 69.4805 125.59 68.7528 124.963C67.3648 123.768 69.2912 122.772 70.4532 122.345C77.3785 119.803 84.7316 118.722 91.6764 116.116C95.2502 114.774 98.7871 113.276 102.383 111.955C105.483 110.816 108.73 109.807 111.726 108.406C115.682 106.557 119.656 104.252 123.082 101.537C123.767 100.994 125.204 100.187 125.674 99.4C126.088 98.707 126.036 99.3982 125.95 98.5579C125.889 97.9544 125.152 97.1364 124.849 96.5662C123.72 94.4403 122.7 92.2564 121.842 90.0065C116.377 92.3564 111.178 95.5547 105.793 98.0657C100.374 100.593 94.2607 102.377 88.4628 103.799C85.9951 104.404 83.1582 104.595 80.8951 105.791C79.9335 106.299 78.983 106.887 77.9531 107.181C77.6488 107.766 77.3495 107.881 77.0545 107.525C76.8697 107.317 76.6308 107.229 76.3376 107.262C75.7077 107.369 75.0651 107.667 74.4761 107.896C71.4942 109.055 68.6389 110.506 65.8081 111.987C64.4663 112.688 63.0899 113.379 61.8058 114.18C61.1176 114.609 60.5009 115.042 59.9377 115.632C59.2624 116.339 59.4233 116.92 58.3306 116.417ZM170.829 38.075C172.092 38.0956 173.244 37.4094 174.561 37.4478C176.633 37.5078 178.273 39.118 179.475 40.6709C181.855 43.7434 181.248 47.45 180.053 50.8886C179.481 52.5319 178.696 54.1094 177.715 55.5478C176.846 56.8213 175.293 58.0258 174.687 59.4437C173.688 61.7821 175.704 60.7877 176.939 60.2884C178.492 59.6599 179.948 58.8788 181.266 57.8265C187.139 53.1369 191.608 46.6184 193.104 39.1323C193.835 35.4799 193.778 31.21 191.24 28.229C188.92 25.503 184.914 24.6125 181.49 25.1179C177.789 25.6645 174.435 27.2362 171.421 29.259C170.546 29.8469 169.744 30.4887 168.922 31.146C167.844 32.0085 167.198 32.031 167.468 33.3827C167.668 34.3877 168.214 35.4291 168.566 36.3934C169.224 38.1995 168.984 38.6668 170.829 38.075ZM174.857 69.2125L174.601 69.6505C176.363 69.7345 178.005 68.1761 179.506 67.4154C181.457 66.4265 183.189 65.0777 184.898 63.7156C187.913 61.3132 190.967 58.6058 193.21 55.4518C198.24 48.382 202.809 39.4186 201.436 30.4548C199.957 20.7941 191.528 17.0753 182.547 18.3542C178.499 18.9305 174.885 20.742 171.263 22.5812C169.437 23.5082 167.896 24.7111 166.224 25.8752C165.356 26.4797 164.563 26.5582 164.507 27.6149C164.464 28.4114 165.838 30.2125 166.209 30.9341C170.757 26.283 175.658 22.4353 182.527 22.1974C190.698 21.9146 195.53 29.6814 195.494 37.1189C195.459 44.4129 192.32 51.4291 187.318 56.6712C185.044 59.0535 182.877 60.9651 180.085 62.7038C178.693 63.5705 177.667 64.3487 176.111 64.9241C175.01 65.3314 175.125 65.1168 174.844 66.1382C174.606 67.0049 174.849 68.3125 174.857 69.2125ZM130.457 168.31C130.35 169.624 130.084 170.918 129.787 172.2C129.681 172.661 129.081 174.114 129.186 174.632C129.36 175.487 129.129 174.937 129.876 175.384C130.656 175.85 131.564 175.822 132.418 175.963C132.946 176.051 134.877 176.962 135.202 176.818C135.77 176.566 135.752 175.679 136.375 175.328C137.224 174.848 138.475 175.259 139.276 175.634C141.417 176.635 142.888 178.707 144.96 179.842C148.639 181.856 153.005 182.972 157.109 183.432C159.333 183.681 161.609 184.118 163.805 183.596C165.535 183.185 167.784 183.222 168.725 181.361C160.366 179.057 147.608 176.237 144.303 166.621C142.506 168.254 139.504 167.374 137.333 167.149C134.944 166.901 132.81 166.959 130.625 165.867C130.465 166.725 130.417 167.437 130.457 168.31ZM56.4491 108.753C60.3838 108.991 64.1143 107.125 66.5356 103.975C67.1317 103.199 67.7429 102.408 68.1007 101.489C68.1785 101.256 68.2558 101.023 68.3333 100.79C68.709 100.147 68.5445 99.8433 67.8402 99.8795C67.4434 99.3339 66.4372 99.1505 66.7236 98.1617C66.939 97.4158 67.7345 97.4036 68.4258 97.1689C68.0815 96.589 67.8756 96.2979 67.3827 95.7822C66.1021 96.9371 63.7778 99.2039 62.8779 96.5506C62.4455 95.2769 63.2064 94.0594 63.0179 92.8308C62.9404 92.3225 62.2978 91.0244 61.9253 90.7207C59.9417 89.1017 57.0848 89.7718 54.9802 90.7247C53.5297 91.3815 53.2175 91.6897 52.981 93.1953C52.7408 94.7263 52.5177 96.2567 52.2511 97.7832C53.1215 97.3285 53.28 96.3463 53.8477 95.639C54.0602 96.027 54.273 96.4156 54.4863 96.8036C54.7858 96.6352 55.0656 96.6439 55.325 96.8305C55.7451 97.4779 55.4809 98.4379 55.3517 99.1164C56.7523 98.9856 57.3442 100.552 55.9323 101.186C54.4697 101.843 53.81 100.052 53.7604 98.8915C53.2146 99.5449 52.654 99.1952 52.2736 99.5309C51.8936 99.8666 51.7438 100.566 51.6086 101.332C51.3863 102.591 50.8176 104.408 51.3439 105.671C52.1251 107.547 54.616 108.523 56.4491 108.753ZM170.468 48.5012C169.166 50.3163 166.946 52.6923 166.482 54.8851C167.916 54.0417 170.948 49.9825 171.729 53.2159C172.177 55.072 169.878 57.2836 169.312 59.0807C171.574 58.3348 173.185 55.9987 174.596 54.1958C176.395 51.897 178.232 48.8668 178.692 45.9436C179.063 43.5782 177.426 41.3735 174.994 41.1417C173.752 41.0233 172.454 41.221 171.254 41.5099C170.707 41.6412 169.89 41.8046 169.402 42.0985C168.789 42.4678 168.705 43.3321 168.127 42.6132C167.359 44.0635 166.592 45.5138 165.824 46.9636C166.588 46.6858 168.147 45.5064 168.982 45.6283C170.201 45.8067 170.451 47.5819 170.468 48.5012ZM48.5642 12.9946C45.151 13.0954 41.5832 13.8241 38.3519 14.9072C37.5496 15.1764 34.1643 16.1338 34.8773 17.5218C35.3485 18.4392 37.8889 17.1428 38.657 16.9266C41.9487 16 45.3379 15.3889 48.7095 14.8312C49.5258 14.6962 52.2952 14.7095 52.4381 13.6368C52.6132 12.3278 49.5282 12.9931 48.5642 12.9946ZM141.459 162.29C139.609 162.516 137.833 162.432 135.981 162.204C134.422 162.013 132.835 161.374 131.285 161.374C131.285 163.038 131.172 163.048 132.923 163.404C134.146 163.653 135.386 163.793 136.621 163.966C138.796 164.271 141.21 165.127 143.412 164.687C143.359 164.398 143.19 162.448 142.962 162.255C142.834 162.147 141.646 162.292 141.459 162.29ZM111.558 39.1711C112.075 39.5015 113.265 40.8192 113.881 40.8425C113.661 39.3171 111.963 36.6611 110.013 37.6037C109.536 37.835 108.532 38.9859 108.986 39.4936C109.229 39.7651 110.924 39.173 111.558 39.1711ZM93.5205 52.7415C93.5393 52.4756 93.5585 52.2097 93.578 51.944C92.8627 52.3656 91.977 52.5652 91.4686 53.2445C92.079 53.5157 92.6889 53.7871 93.2996 54.0586C93.3731 53.6196 93.447 53.1805 93.5205 52.7415ZM149.861 93.2405C153.241 94.4271 156.34 96.0119 158.828 98.702C160.978 101.028 161.989 105.127 162.514 108.176C163.813 115.721 161.306 122.715 159.653 129.933C158.815 133.595 157.563 137.119 156.391 140.686C155.368 143.8 154.49 147.062 153.078 150.024C151.88 152.536 150.35 155.011 149.297 157.617C148.73 159.019 147.811 163.83 145.659 162.319C145.072 163.858 144.929 163.727 145.557 164.796C146.011 165.57 147.552 166.645 148.28 167.275C150.218 168.955 152.672 170.34 154.946 171.516C159.111 173.67 163.574 175.282 167.863 177.247C169.759 178.116 171.815 179.142 171.39 181.629C171.033 183.713 169.83 185.294 167.954 186.221C166.192 187.092 163.672 187.764 161.734 188.037C160.584 188.2 160.32 187.72 159.383 187.554C158.339 187.37 157.122 187.726 156.045 187.717C151.213 187.675 146.982 186.456 143.077 183.647C141.682 182.643 139.628 179.92 137.802 179.92C136.868 179.92 137.065 180.489 136.244 180.822C135.231 181.234 133.485 180.457 132.489 180.275C130.367 179.886 128.208 179.492 126.795 177.659C125.267 175.679 125.81 173.226 126.467 171.027C127.207 168.548 128.452 166.033 128.982 163.516C129.11 162.904 129.229 161.763 129.098 161.14C128.895 160.174 127.922 159.597 127.892 158.551C127.883 158.232 128.338 157.813 128.417 157.484C128.593 156.763 128.565 156.014 128.638 155.28C128.767 153.97 129.065 152.715 129.27 151.42C129.737 148.474 130.659 145.846 131.551 143.008C132.416 140.253 133.24 138.203 134.913 135.818C135.78 134.583 138.677 130.181 137.262 128.915C135.325 132.729 133.061 135.703 130.097 138.739C127.83 141.061 125.613 144.183 122.776 145.837C119.656 147.655 115.844 148.725 112.399 149.686C110.761 150.143 109.402 151.157 107.635 151.345C105.721 151.548 103.773 151.309 101.898 150.881C101.37 150.76 99.8479 149.947 99.3704 149.999C98.6669 150.076 97.6549 151.333 96.8829 151.564C95.0037 152.126 93.7204 151.052 92.295 150.06C90.748 148.983 90.28 148.716 88.495 148.586C86.3086 148.428 84.1823 147.655 82.0318 147.182C78.2508 146.35 75.0369 144.665 71.6002 142.901C67.6607 140.879 64.2909 138.091 61.3215 134.797C56.9564 129.954 50.8772 116.535 58.0079 111.837C53.81 111.265 49.9654 109.427 49.4536 104.665C49.1862 102.172 49.6896 99.4114 50.3147 97.009C50.6 95.912 50.9402 94.822 51.2661 93.7364C51.5115 93.3698 51.6415 92.9688 51.655 92.5327C51.8055 91.9678 51.5885 91.6863 51.0035 91.6889C49.8979 90.393 49.0665 89.249 48.8432 87.4088C48.7728 86.8257 48.7098 85.9317 49.1237 85.4359C49.3152 85.2366 49.5464 85.1033 49.8161 85.0365C50.4642 85.0737 50.6472 84.7536 50.3656 84.0767C50.6802 83.1177 50.2135 82.3705 51.3992 81.9703C51.7792 82.0512 52.1575 82.14 52.5343 82.236C53.0153 82.4559 53.328 82.2965 53.4735 81.7596C54.5904 81.3214 54.0752 80.6735 55.5929 81.2374C56.5113 81.5786 57.3851 82.1662 58.054 82.882C58.893 82.3419 56.9849 79.0049 56.9213 77.9402C56.7702 75.4304 57.8054 73.3555 59.152 71.294C61.7694 67.288 65.4229 63.8433 69.0257 60.7439C75.9265 54.8082 83.1762 49.1575 90.9682 44.4285C87.7538 42.1905 83.9983 41.5839 80.1735 42.624C76.6474 43.583 73.7892 45.3246 70.5434 46.8479C67.5365 48.2586 64.3447 48.8382 63.386 44.9884C62.3118 40.6759 65.739 39.0749 68.8132 37.1411C68.0456 36.5673 65.5186 36.9775 64.5628 37.0455C62.4339 37.1964 60.3978 37.6782 58.329 38.1043C57.3368 38.3084 56.4253 38.2624 55.4424 38.4625C53.9811 38.7599 52.4552 39.0929 50.9768 39.5166C47.4594 40.525 43.9682 42.0554 40.9288 44.1177C38.3019 45.8992 36.4793 48.4148 34.3629 50.7316C31.9492 53.3732 29.6363 55.9726 26.058 56.9395C24.3823 57.3925 22.4167 57.8035 21.2288 56.3032C20.1235 54.9081 20.0618 53.2268 20.0982 51.5211C20.1781 47.7532 21.9937 43.6818 24.1058 40.603C26.3984 37.2609 29.4691 35.3469 32.3703 32.6569C28.1769 32.9574 24.1242 35.1733 20.2677 36.705C19.4562 37.0275 18.6369 37.3899 17.8209 37.688C16.9508 38.0063 16.3744 37.8115 15.5406 37.9571C13.6382 38.2899 12.004 39.0937 10.1534 37.8123C6.65221 35.3882 10.16 30.4567 12.5706 28.9434C15.9282 26.836 19.3441 25.0616 23.0432 23.5584C21.0406 21.3809 22.7507 18.2734 24.5967 16.7287C26.9321 14.774 29.906 13.6539 32.7202 12.6075C34.9456 11.7799 37.1314 10.9854 39.4433 10.4873C41.8738 9.96397 44.7157 9.16426 47.1818 9.24096C49.4947 9.31291 51.5456 8.90443 53.888 8.83909C55.8371 8.78477 57.7906 8.83177 59.7394 8.78112C64.9828 8.64531 70.2454 8.99985 75.3699 9.37786C71.3099 -2.52421 98.0533 1.15139 103.759 2.70603C108.944 4.11902 114.885 5.75806 119.24 9.11068C121.086 10.5306 122.838 12.1451 124.475 13.8018C126.89 16.2461 128.227 19.4471 129.505 22.6066C132.745 21.0153 135.844 19.2812 139.389 18.4921C142.763 17.7416 146.219 16.7243 149.612 16.1572C152.192 15.726 155.937 15.4335 158.109 17.2597C160.467 19.2434 161.696 22.3303 163.103 24.9738C169.864 18.5431 177.405 13.8517 187.044 14.1637C196.476 14.469 202.678 22.6343 203.822 31.4823C205.081 41.2321 200.749 51.4196 194.876 58.9697C192.243 62.3557 189.518 65.6259 185.974 68.152C184.216 69.4041 182.362 70.776 180.435 71.7537C179.474 72.2411 178.423 72.6815 177.414 73.0565C176.959 73.226 176.49 73.3957 176.017 73.5107C174.665 73.8395 174.927 73.4004 174.424 74.587C174.016 75.5504 174.066 77.208 173.892 78.2653C173.692 79.4738 173.573 80.6989 173.282 81.891C172.777 83.9572 172.251 85.9727 171.619 87.9905C170.421 91.8092 168.809 95.658 166.836 99.1415C168.51 99.8703 170.854 99.9437 172.643 100.165C174.579 100.403 176.518 100.906 178.529 101.469C182.559 102.599 186.161 103.553 189.993 105.244C193.971 106.999 197.517 109.621 201.348 111.707C204.871 113.626 208.432 116.029 211.703 118.333C212.482 118.881 212.964 119.357 213.583 120.051C214.217 120.76 214.419 120.899 215.176 121.513C215.518 121.79 216.511 123.187 216.901 123.238C217.6 123.331 217.492 122.808 218.041 122.079C219.186 120.556 220.782 119.376 221.919 117.814C222.867 116.512 223.856 115.193 224.869 114.073C227.322 111.364 229.354 108.36 231.098 105.111C232.006 103.42 232.961 101.81 233.947 100.214C234.928 98.625 236.672 96.5276 238.626 96.6215C238.469 95.8124 237.97 95.6776 238.831 95.1828C239.386 94.864 240.466 95.3778 240.894 95.7014C242.027 96.5588 242.075 98.2219 242.004 99.4714C241.82 102.691 241.148 105.869 240.211 108.914C239.086 112.574 237.674 115.802 236.134 119.295C234.908 122.078 233.386 125.758 230.335 127.027C232.384 129.96 231.4 132.35 230.03 135.464C229.029 137.74 227.707 140.092 225.694 141.598C223.424 143.296 220.962 141.856 218.588 140.734C217.154 140.056 212.77 138.456 213.662 136.369C212.566 136.223 211.877 135.425 210.88 135.18C209.825 134.92 210.006 135.35 208.89 135.511C208.033 135.634 206.753 134.866 205.947 134.59C204.6 134.131 203.257 133.66 201.912 133.196C198.127 131.889 194.406 130.602 190.584 129.555C183.472 127.607 176.272 126.502 169.185 124.763C167.764 124.414 166.352 124.077 164.873 123.798C164.567 123.74 162.982 123.652 162.79 123.324C162.453 122.75 163.489 119.536 163.578 118.881C164.162 114.581 163.972 109.873 163.149 105.622C162.807 103.855 161.281 101.567 161.294 99.842C161.303 98.6848 162.326 97.4213 162.926 96.373C164.412 93.7813 165.968 90.9811 167.069 88.2839C168.754 84.1579 169.786 79.5005 170.53 75.0815C170.917 72.7777 171.368 70.2804 171.474 67.9498C171.555 66.1733 171.409 64.3101 171.666 62.4908C170.685 62.5841 169.298 63.0934 168.414 62.5481C167.299 61.8601 166.999 59.8954 167.142 58.7221C163.322 59.3903 163.449 55.7593 163.685 52.9196C156.782 52.9196 165.623 42.6364 166.727 40.4283C167.235 39.413 167.22 40.5533 166.996 38.9832C166.898 38.2931 166.427 37.5281 166.161 36.8935C165.58 35.5082 164.953 34.144 164.283 32.7999C162.868 29.9611 161.264 27.2182 159.514 24.5734C157.939 25.6738 156.519 26.9763 155.204 28.3738C156.048 26.1614 158.626 23.4207 157.523 20.9085C156.501 18.5799 153.087 18.7413 151.071 19.1671C145.593 20.3249 140.339 22.0113 135.12 23.9639C136.737 24.8932 139.212 24.1753 140.818 23.4648C142.807 22.5846 144.946 21.6613 147.09 21.1951C148.959 20.7885 151.414 20.9273 150.874 23.4516C150.436 25.4969 148.441 27.4667 147.124 28.996C144.223 32.3654 140.585 34.9737 137.012 37.5799C133.17 40.3815 129.469 43.4254 125.58 46.1458C118.548 51.0638 110.988 55.3379 103.723 59.9284C99.9483 62.3137 95.6708 64.2332 91.5768 66.001C87.0732 67.9456 82.7553 70.0277 78.0831 71.5637C75.4883 72.4169 72.9164 73.1189 70.3667 74.0898C68.7686 74.698 65.9855 75.9168 64.9295 74.1107C62.7851 70.4424 70.5458 65.6182 72.6725 63.3755C74.1396 64.8039 66.9047 70.1265 67.4711 72.2062C67.9159 73.8405 69.6369 71.7302 70.468 71.2848C71.8109 70.5648 73.4013 70.2029 74.7511 69.3814C77.5194 67.6966 80.8015 65.7536 81.4336 62.2706C80.9938 61.8054 80.9993 61.3759 81.4502 60.982C81.6508 60.7428 81.8101 60.4801 81.9274 60.1935C82.1244 59.6461 82.2035 58.9607 82.309 58.3803C82.6206 56.6651 81.8383 55.0591 82.5695 53.3804C78.303 56.621 74.2021 60.2816 70.1521 63.7897C66.5195 66.9364 62.7289 71.0569 61.394 75.7524C61.2231 76.354 60.9389 77.0365 60.97 77.6714C61.0306 78.9179 61.1548 78.6491 62.1565 79.0498C63.1585 79.4508 64.6174 79.4162 65.6947 79.4587C66.3088 79.4825 69.0515 78.8307 68.5063 80.1816C68.192 80.9606 66.2906 80.9313 65.6098 81.0032C63.9012 81.184 62.9747 80.9984 63.7842 82.855C64.147 83.6871 64.8821 84.2509 65.4587 84.8948C67.0637 86.6866 67.9354 89.4348 69.1979 91.5399C70.6362 93.9381 72.2174 96.2186 73.8973 98.4522C74.5905 99.3736 75.517 101.106 76.4781 101.763C77.3754 102.377 76.3196 102.327 77.8102 102.077C78.4599 101.969 79.0487 101.545 79.6701 101.393C83.3861 100.486 87.2056 99.4629 91.0484 98.3427C95.9637 96.9098 101.122 95.6881 105.812 93.6248C110.013 91.7759 114.183 89.5749 118.428 87.7024C119.668 87.1561 120.906 86.7937 121.869 85.7879C123.032 84.5742 123.995 82.985 125.068 81.6804C126.892 79.4608 128.574 77.2035 130.537 75.1003C131.999 73.5352 134.589 70.6261 136.651 70.0012C140.57 68.8147 138.472 74.7976 137.966 76.3098C138.887 76.5194 139.371 75.335 140.452 75.6757C141.747 76.0838 141.881 77.8093 142.042 78.8907C142.085 79.1788 141.697 79.7172 141.815 79.9742C141.855 80.0616 142.7 80.5623 142.863 80.7943C143.454 81.6373 143.338 82.6623 143.114 83.5713C141.954 88.2802 137.832 91.7185 134.801 95.192C136.157 94.9348 137.162 94.1601 138.443 93.776C139.644 93.4158 140.852 93.4345 142.063 93.3312C143.331 93.2231 144.549 92.7473 145.846 92.7232C147.208 92.6979 148.511 93.0864 149.861 93.2405Z"
        fill="black" />
    <path fill-rule="evenodd" clip-rule="evenodd"
        d="M6.49712 50.8867C5.74961 51.3765 5.53891 51.8571 5.5131 52.987C5.50276 53.4504 5.53464 55.1793 6.18074 55.1141C6.78705 55.053 6.49712 51.4812 6.49712 50.8867ZM2.6357 53.7026C2.98401 50.0811 4.30569 46.3988 7.41488 44.1423C8.1838 43.5843 9.05363 43.6041 9.89635 43.252C10.4028 43.0406 11.203 42.0573 11.778 42.1736C13.8945 42.6028 11.4492 45.4221 11.0912 46.1638C9.98144 48.4616 10.0564 50.4805 10.0895 52.9593C10.1147 54.8431 10.5052 58.019 9.55782 59.7241C8.54793 61.5397 6.35753 60.3606 5.13486 59.2861C3.59177 57.9294 2.42634 55.769 2.6357 53.7026Z"
        fill="black" />
    <path fill-rule="evenodd" clip-rule="evenodd"
        d="M39.7919 64.4047C39.7919 66.4255 41.428 65.0574 41.3697 63.62C41.284 61.5038 39.7154 62.8069 39.7919 64.4047ZM48.4902 53.2329C46.6996 54.8474 45.3182 55.7532 44.973 58.2357C44.7117 60.1161 44.9715 61.9785 44.9825 63.8727C45.0012 67.0477 42.4436 70.3856 39.6914 66.7461C37.6838 64.0915 38.4039 59.9173 40.041 57.2493C40.9001 55.8497 42.1264 54.4649 43.5431 53.5926C44.6086 52.936 47.6061 51.6443 48.4902 53.2329Z"
        fill="black" />
    <path fill-rule="evenodd" clip-rule="evenodd"
        d="M23.4813 102.165C23.2738 102.658 22.7863 104.668 23.7808 104.214C24.6586 103.812 24.0899 102.479 23.4813 102.165ZM18.2271 95.9583C18.0737 95.2024 18.1362 90.4631 19.4384 90.8186C20.4612 91.0972 20.6302 93.5231 21.0468 94.3674C22.5985 97.5115 26.16 99.4693 27.3881 102.714C28.759 106.338 24.6143 106.451 22.415 104.983C19.811 103.246 18.3044 98.9909 18.2271 95.9583Z"
        fill="black" />
    <path fill-rule="evenodd" clip-rule="evenodd"
        d="M15.035 76.5261C15.6 75.7611 15.6572 75.3525 15.335 74.6758C14.9232 75.1249 14.9962 75.7667 15.035 76.5261ZM15.4439 79.9477C12.4977 80.2784 12.3502 74.8357 12.8547 72.967C13.2565 71.4786 14.1203 69.8794 15.0097 68.6667C15.1892 68.4219 16.8925 66.223 17.2263 66.2177C18.5078 66.1974 18.1558 67.6488 18.0174 68.1891C17.582 69.8913 17.4096 71.3139 17.5267 73.2012C17.6524 75.2206 18.6064 80.0149 15.4439 79.9477Z"
        fill="black" />
    <path fill-rule="evenodd" clip-rule="evenodd"
        d="M149.213 32.8118C145 36.3535 141.001 40.1877 136.42 43.2856C134.179 44.8018 131.835 46.1429 129.599 47.6837C128.459 48.4684 127.297 49.171 126.033 49.7478C124.917 50.2574 124.187 50.3237 125.113 49.1142C125.733 48.3062 127.12 47.7431 127.964 47.1688C129.262 46.2841 130.487 45.3029 131.853 44.5181C134.259 43.1339 136.652 42.0163 138.87 40.3188C140.84 38.8125 142.871 37.3418 144.751 35.7408C145.557 35.0543 148.229 31.9025 149.213 32.8118Z"
        fill="black" />
    <path fill-rule="evenodd" clip-rule="evenodd"
        d="M149.298 45.6003C151.193 47.2249 146.453 51.6755 145.371 52.6842C144.232 53.7481 142.976 54.697 141.736 55.6393C141.3 55.9713 138.919 58.1924 138.315 58.0132C137.122 57.6593 138.688 56.2182 139.095 55.8426C140.412 54.6256 141.756 53.4446 143.043 52.1949C144.204 51.0689 145.462 50.0262 146.584 48.8637C147.494 47.9219 148.258 46.3262 149.298 45.6003Z"
        fill="black" />
    <path fill-rule="evenodd" clip-rule="evenodd"
        d="M8.93945 111.088C8.4448 109.939 7.55892 111.215 8.00803 111.788C8.43278 112.332 8.8762 111.309 8.93945 111.088ZM6.03906 108.819C6.30424 107.129 6.91706 106.191 8.49817 107.633C9.58463 108.624 11.7697 111.442 11.5624 112.978C11.2902 114.993 9.07638 114.421 7.92877 113.367C6.75245 112.287 6.23315 110.317 6.03906 108.819Z"
        fill="black" />
    <path fill-rule="evenodd" clip-rule="evenodd"
        d="M9.50368 142.071C7.5668 141.924 5.91437 140.433 5.09184 138.686C4.39979 137.217 3.74475 134.849 6.17609 135.621C7.7607 136.124 13.8693 142.308 9.50368 142.071Z"
        fill="black" />
    <path fill-rule="evenodd" clip-rule="evenodd"
        d="M32.9767 132.494C31.4799 132.836 29.9993 131.847 29.0789 130.733C28.5062 130.039 27.1733 127.606 27.8449 126.604C28.7809 125.207 30.1942 128.015 30.6817 128.571C31.4464 129.441 33.947 131.106 32.9767 132.494Z"
        fill="black" />
    <path fill-rule="evenodd" clip-rule="evenodd"
        d="M34.3251 94.5C33.1517 93.9542 32.0625 93.2971 31.5905 91.9934C31.2905 91.1632 31.0384 88.6735 32.371 88.6849C33.9124 88.6986 37.4419 94.2507 34.3251 94.5Z"
        fill="black" />
    <path fill-rule="evenodd" clip-rule="evenodd"
        d="M26.0989 68.5971C27.6699 68.5686 28.0419 69.4371 28.2602 70.685C28.4087 71.5319 29.1282 74.4069 28.381 74.9959C27.3131 75.8375 25.6143 73.9092 25.271 73.1522C24.5633 71.5937 25.5418 70.0609 26.0989 68.5971Z"
        fill="black" />
    <path fill-rule="evenodd" clip-rule="evenodd"
        d="M53.0933 154.802C53.8582 155.151 55.5985 155.925 54.9335 157.125C54.2382 158.381 52.2419 157.161 51.4963 156.612C51.1841 156.382 49.2007 154.879 49.2838 154.375C49.4586 153.303 52.1926 154.701 53.0933 154.802Z"
        fill="black" />
    <path fill-rule="evenodd" clip-rule="evenodd"
        d="M2.69739 76.3958C3.22009 77.7079 3.80848 82.2157 1.05595 79.7815C0.215975 79.0385 0.0892012 78.1108 0.378608 77.0907C0.797081 75.6126 1.40608 75.9058 2.69739 76.3958Z"
        fill="black" />
    <path fill-rule="evenodd" clip-rule="evenodd"
        d="M148.564 59.6094C147.954 58.361 149.459 57.5559 150.263 56.7513C150.788 56.2258 152.996 53.3756 153.719 53.5366C155.208 53.8678 149.296 59.0527 148.564 59.6094Z"
        fill="black" />
    <path fill-rule="evenodd" clip-rule="evenodd"
        d="M26.0792 150.03C27.5154 149.799 27.8505 151.399 28.7757 152.096C29.1726 152.395 30.5347 152.658 30.2607 153.292C29.5409 154.959 26.0088 151.151 26.0792 150.03Z"
        fill="black" />
    <path fill-rule="evenodd" clip-rule="evenodd"
        d="M38.207 112.26C39.1942 111.846 42.0434 114.071 41.2253 115.033C40.0024 116.471 38.2766 113.047 38.207 112.26Z"
        fill="black" />
    <path fill-rule="evenodd" clip-rule="evenodd"
        d="M59.0153 144.453C58.2957 144.525 55.259 143.568 56.3841 142.287C57.174 141.387 59.2734 143.639 59.0153 144.453Z"
        fill="black" />
    <path fill-rule="evenodd" clip-rule="evenodd"
        d="M22.6504 138.306C21.9361 138.592 19.3595 138.003 20.1695 136.881C20.9413 135.813 22.6514 137.419 22.6504 138.306Z"
        fill="black" />
    <path fill-rule="evenodd" clip-rule="evenodd"
        d="M43.7441 143.145C44.5795 143.058 45.1827 143.563 45.3262 144.418C44.2815 144.567 43.9593 144.318 43.7441 143.145Z"
        fill="black" />
    <path fill-rule="evenodd" clip-rule="evenodd"
        d="M152.377 19.0334C152.73 19.035 153.082 19.0369 153.432 19.0385C153.078 19.0366 152.728 19.035 152.377 19.0334Z"
        fill="black" />
    <path fill-rule="evenodd" clip-rule="evenodd"
        d="M146.84 92.6487C146.312 92.6492 145.785 92.6503 145.258 92.6508C145.785 92.6497 146.313 92.6492 146.84 92.6487Z"
        fill="black" />
    <path fill-rule="evenodd" clip-rule="evenodd"
        d="M74.8941 6.48047C74.8698 7.00972 74.8456 7.53898 74.8208 8.06641C74.8445 7.5367 74.8693 7.00835 74.8941 6.48047Z"
        fill="black" />
    <path fill-rule="evenodd" clip-rule="evenodd"
        d="M238.283 96.3503C238.451 96.9385 238.205 97.036 237.543 96.6427C237.789 96.5452 238.036 96.4479 238.283 96.3503Z"
        fill="black" />
    <path fill-rule="evenodd" clip-rule="evenodd"
        d="M223.305 142.472C223.569 142.474 223.834 142.476 224.096 142.477C223.83 142.476 223.568 142.474 223.305 142.472Z"
        fill="black" />
    <path fill-rule="evenodd" clip-rule="evenodd"
        d="M173.207 99.9252C172.765 100.263 172.325 100.311 171.889 99.9072C172.328 99.9136 172.767 99.9194 173.207 99.9252Z"
        fill="black" />
    <path fill-rule="evenodd" clip-rule="evenodd"
        d="M163.336 54.8516C163.325 55.2927 163.314 55.7336 163.302 56.1732C163.313 55.7315 163.325 55.2914 163.336 54.8516Z"
        fill="black" />
    <path fill-rule="evenodd" clip-rule="evenodd"
        d="M186.127 14.0665C185.687 14.0662 185.248 14.0657 184.809 14.0652C185.248 13.9002 185.688 13.9544 186.127 14.0665Z"
        fill="black" />
    <path fill-rule="evenodd" clip-rule="evenodd"
        d="M57.1914 8.68848C56.7521 8.71438 56.3123 8.74028 55.873 8.76619C56.3123 8.74028 56.7521 8.71438 57.1914 8.68848Z"
        fill="black" />
    <path fill-rule="evenodd" clip-rule="evenodd"
        d="M68.002 8.77224C67.6505 8.74237 67.2985 8.71224 66.9473 8.68237C67.2985 8.71224 67.65 8.74237 68.002 8.77224Z"
        fill="black" />
    <path fill-rule="evenodd" clip-rule="evenodd"
        d="M73.8027 9.19092C73.4513 9.32229 73.0998 9.4 72.748 9.19277C73.0998 9.19224 73.4513 9.19145 73.8027 9.19092Z"
        fill="black" />
    <path fill-rule="evenodd" clip-rule="evenodd"
        d="M42.4258 9.91479C41.986 10.0044 41.5467 10.094 41.1074 10.1828C41.5472 10.094 41.9865 10.0044 42.4258 9.91479Z"
        fill="black" />
    <path fill-rule="evenodd" clip-rule="evenodd"
        d="M163.601 117.496C163.589 117.761 163.577 118.026 163.565 118.289C163.577 118.024 163.589 117.76 163.601 117.496Z"
        fill="black" />
    <path fill-rule="evenodd" clip-rule="evenodd"
        d="M18.2925 96.0859C18.2978 96.2625 18.3028 96.4391 18.3075 96.6146C18.3017 96.4375 18.2975 96.2617 18.2925 96.0859Z"
        fill="black" />
    <path fill-rule="evenodd" clip-rule="evenodd"
        d="M239.916 95.1376L238.598 95.1445C239.036 94.8162 239.476 94.8579 239.916 95.1376Z"
        fill="black" />
    <path fill-rule="evenodd" clip-rule="evenodd"
        d="M149.74 93.2655C149.388 93.2074 149.037 93.1492 148.686 93.0911C149.037 93.1492 149.389 93.2074 149.74 93.2655Z"
        fill="black" />
    <path fill-rule="evenodd" clip-rule="evenodd"
        d="M53.2363 154.762C52.7968 154.676 52.3575 154.59 51.918 154.505L53.2363 154.762Z"
        fill="black" />
    <path fill-rule="evenodd" clip-rule="evenodd"
        d="M141.974 78.905C141.966 78.6404 141.958 78.3759 141.95 78.1121C141.958 78.3766 141.966 78.641 141.974 78.905Z"
        fill="black" />
    <path fill-rule="evenodd" clip-rule="evenodd"
        d="M58.5098 8.776C58.2461 8.74349 57.9822 8.71098 57.7188 8.67847C57.9822 8.71098 58.2461 8.74349 58.5098 8.776Z"
        fill="black" />
    <path fill-rule="evenodd" clip-rule="evenodd"
        d="M101.752 2.23929C101.488 2.1592 101.224 2.07911 100.961 1.99902C101.225 2.07911 101.488 2.1592 101.752 2.23929Z"
        fill="black" />
    <path fill-rule="evenodd" clip-rule="evenodd"
        d="M133.129 180.521C133.305 180.532 133.482 180.543 133.656 180.553C133.479 180.542 133.304 180.532 133.129 180.521Z"
        fill="black" />
    <path fill-rule="evenodd" clip-rule="evenodd"
        d="M12.1035 38.5852C12.3682 38.5921 12.633 38.5992 12.8945 38.6063C12.6285 38.5992 12.366 38.5921 12.1035 38.5852Z"
        fill="black" />
    <path fill-rule="evenodd" clip-rule="evenodd"
        d="M189.027 14.3245C188.588 14.2936 188.149 14.2626 187.709 14.2314C188.149 14.2626 188.588 14.2936 189.027 14.3245Z"
        fill="black" />
    <path fill-rule="evenodd" clip-rule="evenodd"
        d="M50.0723 13.0869C49.4555 13.088 48.8396 13.089 48.2266 13.0901C48.8446 13.089 49.4584 13.088 50.0723 13.0869Z"
        fill="black" />
    <path fill-rule="evenodd" clip-rule="evenodd"
        d="M174.645 67.5391C174.652 67.9802 174.661 68.4214 174.67 68.8607C174.662 68.4193 174.654 67.9789 174.645 67.5391Z"
        fill="black" />
    <path fill-rule="evenodd" clip-rule="evenodd"
        d="M142.357 162.175C142.005 162.17 141.653 162.164 141.303 162.158C141.656 162.163 142.007 162.169 142.357 162.175Z"
        fill="black" />
    <path fill-rule="evenodd" clip-rule="evenodd"
        d="M179.799 22.1267C180.326 22.068 180.853 22.0094 181.381 21.9507C180.875 22.3995 180.328 22.1008 179.799 22.1267Z"
        fill="black" />
    <path fill-rule="evenodd" clip-rule="evenodd"
        d="M139.457 162.313C139.193 162.303 138.928 162.293 138.666 162.284C138.932 162.294 139.194 162.303 139.457 162.313Z"
        fill="black" />
    <path fill-rule="evenodd" clip-rule="evenodd"
        d="M130.34 166.925C130.354 167.366 130.367 167.807 130.38 168.246C130.367 167.804 130.354 167.364 130.34 166.925Z"
        fill="black" />
    <path fill-rule="evenodd" clip-rule="evenodd"
        d="M170.57 38.3573C170.922 38.3246 171.274 38.2918 171.625 38.2593C171.304 38.5072 170.927 38.3621 170.57 38.3573Z"
        fill="black" />
    <path fill-rule="evenodd" clip-rule="evenodd"
        d="M55.3457 108.677C55.6972 108.742 56.0492 108.806 56.4004 108.871C56.0489 108.806 55.6972 108.742 55.3457 108.677Z"
        fill="black" />
    <path fill-rule="evenodd" clip-rule="evenodd"
        d="M110.189 39.1254C110.628 38.7506 111.068 38.7913 111.508 39.1212C111.068 39.1223 110.629 39.1238 110.189 39.1254Z"
        fill="black" />
    <path fill-rule="evenodd" clip-rule="evenodd"
        d="M93.6909 52.4727C93.7036 52.2964 93.716 52.1201 93.7294 51.9441C93.7173 52.1207 93.7041 52.2967 93.6909 52.4727Z"
        fill="black" />
    <path fill-rule="evenodd" clip-rule="evenodd"
        d="M170.433 47.4504C170.437 47.8036 170.44 48.1564 170.444 48.5077C170.441 48.1538 170.437 47.8023 170.433 47.4504Z"
        fill="black" />
    <path fill-rule="evenodd" clip-rule="evenodd"
        d="M54.1023 102.702C54.6808 102.899 55.8444 103.493 56.5186 103.414C57.0583 103.351 57.5031 102.693 58.0236 102.694C59.425 102.696 59.1651 104.32 58.488 105.192C56.6567 107.55 52.5648 104.993 54.1023 102.702Z"
        fill="black" />
    <path fill-rule="evenodd" clip-rule="evenodd"
        d="M59.822 94.2356C61.7331 94.7301 60.7813 98.9442 59.1747 99.2339C57.2831 99.5754 56.9536 96.1488 57.3272 94.9101C58.3007 95.4901 57.6979 97.5586 58.9248 96.9869C59.705 96.6229 59.5863 94.9403 59.822 94.2356Z"
        fill="black" />
</svg>
