<svg fill="none" height="24" viewBox="0 0 25 24" width="25" xmlns="http://www.w3.org/2000/svg">
    <path
        d="M18.0001 13.9999C17.7074 15.0184 17.1271 15.9308 16.329 16.6278C15.5309 17.3248 14.5487 17.777 13.5001 17.9299C12.6801 18.0489 11.8446 18.001 11.0436 17.789C10.2426 17.577 9.49275 17.2053 8.83898 16.6963C8.1852 16.1873 7.64103 15.5514 7.23911 14.8269C6.8372 14.1024 6.58584 13.3041 6.50011 12.4799C6.43371 11.6526 6.53968 10.8205 6.81133 10.0362C7.08298 9.2519 7.5144 8.5325 8.07832 7.92347C8.64223 7.31445 9.32637 6.82904 10.0875 6.49795C10.8486 6.16686 11.6701 5.99729 12.5001 5.99995C13.2779 6.00104 14.0483 6.15038 14.7701 6.43995C14.8838 6.49098 15.0124 6.49773 15.1308 6.45889C15.2492 6.42004 15.3488 6.3384 15.4101 6.22995L16.8501 3.57995C16.8811 3.51891 16.8997 3.45235 16.905 3.3841C16.9102 3.31584 16.9019 3.24722 16.8805 3.18218C16.8591 3.11715 16.8251 3.05697 16.7804 3.00511C16.7358 2.95324 16.6813 2.91071 16.6201 2.87995C15.0738 2.17986 13.3748 1.88489 11.683 2.02282C9.99125 2.16075 8.36243 2.72703 6.94996 3.66834C5.5375 4.60965 4.38789 5.895 3.60939 7.40333C2.8309 8.91166 2.44916 10.5933 2.50011 12.2899C2.59866 14.8098 3.63449 17.2022 5.40469 18.9983C7.17489 20.7944 9.55191 21.8648 12.0701 22C14.708 22.1169 17.2852 21.1858 19.2392 19.4098C21.1932 17.6338 22.3654 15.157 22.5001 12.5199V10.5199C22.4976 10.3881 22.4441 10.2624 22.3508 10.1692C22.2576 10.076 22.1319 10.0225 22.0001 10.0199H13.0001C12.8675 10.0199 12.7403 10.0726 12.6466 10.1664C12.5528 10.2602 12.5001 10.3873 12.5001 10.5199V13.5199C12.5001 13.6526 12.5528 13.7797 12.6466 13.8735C12.7403 13.9673 12.8675 14.0199 13.0001 14.0199H18.0001"
        fill="#A91F5B" />
</svg>
